<?xml version="1.0" encoding="UTF-8"?>
<svg width="27px" height="39px" viewBox="0 0 27 39" version="1.1" xmlns="http://www.w3.org/2000/svg" xmlns:xlink="http://www.w3.org/1999/xlink">
    <!-- Generator: Sketch 41.2 (35397) - http://www.bohemiancoding.com/sketch -->
    <title>hubzone-map-marker</title>
    <desc>Created with Sketch.</desc>
    <defs></defs>
    <g id="Page-1" stroke="none" stroke-width="1" fill="none" fill-rule="evenodd">
        <g id="hubzone-map-marker">
            <g id="Fill-30" fill="#122E51">
                <path d="M0.849598878,17.5191828 L10.4790872,37.1793512 C10.7629878,37.7713662 11.1877872,38.1809108 11.7072202,38.4992202 C12.2729185,38.8175296 12.886985,39 13.5010515,39 C14.115118,39 14.7270815,38.8175296 15.2948828,38.4992202 C15.8143158,38.1809108 16.2391152,37.7713662 16.5209128,37.1793512 L26.1504011,17.5191828 C26.7182024,16.3371803 27,14.8348409 27,12.9695883 C27,9.41952589 25.6793364,6.32563943 23.0359062,3.82174049 C20.392476,1.27323768 17.2296129,1.38555833e-13 13.5010515,1.38555833e-13 C9.77249007,1.38555833e-13 6.60962692,1.27323768 3.96619674,3.82174049 C1.32276657,6.32563943 9.41469125e-14,9.41952589 9.41469125e-14,12.9695883 C9.41469125e-14,14.8348409 0.283900615,16.3371803 0.849598878,17.5191828 Z M13.5010515,6.50810979 C15.3411481,6.50810979 16.9457123,7.14472863 18.2684789,8.41796631 C19.5891425,9.69323144 20.2515772,11.1935434 20.2515772,12.9695883 C20.2515772,14.7882096 19.5891425,16.290549 18.2684789,17.5658141 C16.9457123,18.8390518 15.3411481,19.4756706 13.5010515,19.4756706 C11.6588519,19.4756706 10.0542877,18.8390518 8.73362411,17.5658141 C7.41085754,16.290549 6.75052574,14.7882096 6.75052574,12.9695883 C6.75052574,11.1935434 7.41085754,9.69323144 8.73362411,8.41796631 C10.0542877,7.14472863 11.6588519,6.50810979 13.5010515,6.50810979 Z"></path>
            </g>
            <circle id="Oval-3" fill="#FFFFFF" cx="13.5" cy="13.5" r="7.5"></circle>
        </g>
    </g>
</svg>