<?xml version="1.0" encoding="UTF-8"?>
<svg width="27px" height="39px" viewBox="0 0 27 39" version="1.1" xmlns="http://www.w3.org/2000/svg" xmlns:xlink="http://www.w3.org/1999/xlink">
    <!-- Generator: Sketch 41.2 (35397) - http://www.bohemiancoding.com/sketch -->
    <title>hubzone-map-marker</title>
    <desc>Created with Sketch.</desc>
    <defs></defs>
    <g id="Page-1" stroke="none" stroke-width="1" fill="none" fill-rule="evenodd">
        <g id="hubzone-map-marker">
            <path d="M0.849560345,17.4787538 L10.4786119,37.0935526 C10.7624996,37.6842013 11.1872798,38.0928008 11.7066892,38.4103757 C12.2723618,38.7279506 12.8864005,38.9099998 13.5004391,38.9099998 C14.1144778,38.9099998 14.7264136,38.7279506 15.2941891,38.4103757 C15.8135985,38.0928008 16.2383787,37.6842013 16.5201635,37.0935526 L26.1492151,17.4787538 C26.7169905,16.299479 26.9987754,14.8006066 26.9987754,12.9396584 C26.9987754,9.39778848 25.6781717,6.31104177 23.0348614,3.81292107 C20.3915511,1.27029943 17.2288314,-1.38555833e-13 13.5004391,-1.38555833e-13 C9.77204683,-1.38555833e-13 6.60932714,1.27029943 3.96601686,3.81292107 C1.32270658,6.31104177 -9.23705556e-14,9.39778848 -9.23705556e-14,12.9396584 C-9.23705556e-14,14.8006066 0.283887739,16.299479 0.849560345,17.4787538 L0.849560345,17.4787538 Z" id="Fill-30" fill="#122E51"></path>
            <path d="M13.5004391,6.49309105 C15.3404523,6.49309105 16.9449437,7.12824077 18.2676503,8.3985402 C19.588254,9.67086241 20.2506587,11.1677121 20.2506587,12.9396584 C20.2506587,14.7540829 19.588254,16.2529553 18.2676503,17.5252775 C16.9449437,18.795577 15.3404523,19.4307267 13.5004391,19.4307267 C11.6583231,19.4307267 10.0538317,18.795577 8.733228,17.5252775 C7.41052142,16.2529553 6.75021957,14.7540829 6.75021957,12.9396584 C6.75021957,11.1677121 7.41052142,9.67086241 8.733228,8.3985402 C10.0538317,7.12824077 11.6583231,6.49309105 13.5004391,6.49309105 L13.5004391,6.49309105 Z" id="Path" fill="#FFFFFF"></path>
        </g>
    </g>
</svg>